<svg width="96" height="96" viewBox="0 0 96 96" fill="none" xmlns="http://www.w3.org/2000/svg">
<circle opacity="0.304943" r="47.5" transform="matrix(1 0 0 -1 48 48)" fill="url(#paint0_linear_5536_20542)" stroke="url(#paint1_linear_5536_20542)"/>
<circle opacity="0.173084" r="40.5" transform="matrix(1 0 0 -1 48 48)" fill="url(#paint2_linear_5536_20542)" stroke="url(#paint3_linear_5536_20542)"/>
<path fill-rule="evenodd" clip-rule="evenodd" d="M47.9616 16.6819L20.5001 32.3473V63.6797L47.9616 79.347L75.4227 63.6797V32.3473L47.9616 16.6819Z" fill="#FEFEFE"/>
<path fill-rule="evenodd" clip-rule="evenodd" d="M47.9616 16.6819L20.5001 32.3473V63.6797L47.9616 79.347L75.4227 63.6797V32.3473L47.9616 16.6819ZM37.1191 30.2272H58.7307L61.3362 41.1142H34.6118L37.1191 30.2272ZM43.3459 48.8393L40.989 42.7587H54.9836L52.6764 48.8393L53.3463 55.6322L47.9616 55.6568H42.6266L43.3459 48.8393ZM50.2203 62.8412V60.6842L55.0581 56.0989V48.8639L61.3859 44.7944L68.6068 50.1642L58.7789 67.0842H54.8841L50.2203 62.8412ZM27.3179 50.1642L34.5618 44.8432L40.9642 48.8639V56.0989L45.802 60.6842V62.8412L41.1385 67.1333H37.1925L27.3179 50.1642Z" fill="#002D72"/>
<path fill-rule="evenodd" clip-rule="evenodd" d="M58.7791 67.084H54.884L50.2205 62.8411V60.6841L55.0583 56.0988V48.8637L61.3858 44.7942L68.607 50.164L58.7791 67.084ZM47.9615 16.6818V30.2274H58.7306L61.3364 41.1144H47.9615V42.7589H54.9837L52.6765 48.8392L53.3462 55.6321L47.9615 55.6567V79.3469L75.4229 63.6799V32.3472L47.9615 16.6818Z" fill="url(#paint4_linear_5536_20542)" style="mix-blend-mode:multiply"/>
<path fill-rule="evenodd" clip-rule="evenodd" d="M45.8022 62.8411L41.1384 67.1332H37.1923L27.3178 50.164L34.562 44.8434L40.9643 48.8637V56.0988L45.8022 60.6841V62.8411ZM42.6265 55.6567L43.3458 48.8392L40.9892 42.7589H47.9615V41.1144H34.6117L37.1193 30.2274H47.9615V16.6818L20.5 32.3472V63.6799L47.9615 79.3469V55.6567H42.6265Z" fill="url(#paint5_linear_5536_20542)" style="mix-blend-mode:multiply"/>
<defs>
<linearGradient id="paint0_linear_5536_20542" x1="8.96913" y1="24.0791" x2="-6.30238" y2="75.4148" gradientUnits="userSpaceOnUse">
<stop stop-color="white"/>
<stop offset="1" stop-color="#93D2FD"/>
</linearGradient>
<linearGradient id="paint1_linear_5536_20542" x1="-2.00866" y1="40.2117" x2="50.5893" y2="99.2827" gradientUnits="userSpaceOnUse">
<stop stop-color="#C5EBFF"/>
<stop offset="1" stop-color="white"/>
</linearGradient>
<linearGradient id="paint2_linear_5536_20542" x1="7.66113" y1="20.5676" x2="-5.38328" y2="64.4168" gradientUnits="userSpaceOnUse">
<stop stop-color="white"/>
<stop offset="1" stop-color="#93D2FD"/>
</linearGradient>
<linearGradient id="paint3_linear_5536_20542" x1="-1.71573" y1="34.3475" x2="43.2117" y2="84.804" gradientUnits="userSpaceOnUse">
<stop stop-color="#C5EBFF"/>
<stop offset="1" stop-color="white"/>
</linearGradient>
<linearGradient id="paint4_linear_5536_20542" x1="72.4943" y1="72.5866" x2="72.4943" y2="23.2875" gradientUnits="userSpaceOnUse">
<stop stop-color="#002D72"/>
<stop offset="1" stop-color="#002D72" stop-opacity="0.01"/>
</linearGradient>
<linearGradient id="paint5_linear_5536_20542" x1="45.0329" y1="72.5866" x2="45.0329" y2="23.2875" gradientUnits="userSpaceOnUse">
<stop stop-color="#002D72" stop-opacity="0.01"/>
<stop offset="1" stop-color="#002D72"/>
</linearGradient>
</defs>
</svg>
